<svg xmlns="http://www.w3.org/2000/svg" data-name="Layer 1" viewBox="0 0 100 125" x="0px" y="0px"><title>set</title><path d="M44.769,72.71387q-.8921,0-1.78027-.00684a1.20117,1.20117,0,0,1-1.19043-1.21,1.21535,1.21535,0,0,1,1.21-1.19043c5.33984.04395,10.76367-.11426,16.09668-.47168a1.19994,1.19994,0,1,1,.16015,2.39453C54.46428,72.55176,49.59612,72.71387,44.769,72.71387Z"/><path d="M51.61956,71.9375a1.20063,1.20063,0,0,1-1.14356-.83691c-2.19922-6.92481-4.47265-14.08594-7.65234-20.70118-.23047-.47949-.4668-.959-.70313-1.43847A33.87949,33.87949,0,0,1,39.1176,41.375a1.20011,1.20011,0,0,1,2.34375-.51758,31.60429,31.60429,0,0,0,2.81153,7.043c.24023.48633.47949.97266.71386,1.459,3.25293,6.76855,5.55274,14.01074,7.77637,21.01464a1.2008,1.2008,0,0,1-1.14355,1.56348Z"/><path d="M51.65276,69.63086a1.25691,1.25691,0,0,1-.14746-.00879,1.20058,1.20058,0,0,1-1.0459-1.33691,147.14539,147.14539,0,0,1,6.0791-27.48145,1.2001,1.2001,0,0,1,2.2832.74024,144.64,144.64,0,0,0-5.97949,27.03222A1.20015,1.20015,0,0,1,51.65276,69.63086Z"/><path d="M52.102,46.57031a1.19687,1.19687,0,0,1-.88867-.39355,28.40015,28.40015,0,0,1-2.66309-3.42383l-1.50781,2.7793a1.20163,1.20163,0,0,1-.92676.62109,1.183,1.183,0,0,1-1.03809-.41113,20.66731,20.66731,0,0,0-4.09082-3.64453,1.20044,1.20044,0,1,1,1.34571-1.98828A23.06575,23.06575,0,0,1,45.72991,42.918L47.435,39.77539a1.20128,1.20128,0,0,1,1.04785-.62793,1.14168,1.14168,0,0,1,1.05468.61524,25.98986,25.98986,0,0,0,2.80762,4.06445c.99219-.59961,1.97949-1.21973,2.94531-1.84863A1.19965,1.19965,0,1,1,56.601,43.98828c-1.27148.83008-2.58008,1.64258-3.88965,2.415A1.19894,1.19894,0,0,1,52.102,46.57031Z"/><path d="M58.23772,72.32715a1.19981,1.19981,0,0,1-1.09082-.69824c-1.32227-2.87207-.03223-6.01856,1.61621-8.00586A23.49215,23.49215,0,0,1,62.603,60.15723c.6045-.46875,1.21-.9375,1.78907-1.43457a21.26932,21.26932,0,0,0,7.46582-15.53711A18.78417,18.78417,0,0,0,64.43792,27.916a22.97957,22.97957,0,0,0-7.14356-3.36914c-6.78027-1.98633-13.80859-1.48926-19.2832,1.3623-5.98242,3.11426-10.07422,9.333-10.1836,15.47266-.13867,7.8125,5.52149,14.14746,8.90723,17.22754l.40723.37011c3.56933,3.23731,8.01172,7.2666,6.80859,12.38281a1.19977,1.19977,0,1,1-2.33594-.54882c.87891-3.74024-2.82031-7.09571-6.085-10.05664l-.41015-.37207c-3.68653-3.35352-9.84668-10.28711-9.69239-19.0459.127-7.10254,4.63086-13.99512,11.47461-17.5586,6.01856-3.13574,13.69727-3.69433,21.06641-1.53613a25.3039,25.3039,0,0,1,7.88769,3.73633A21.21791,21.21791,0,0,1,74.25823,43.2207a23.70429,23.70429,0,0,1-8.30371,17.32422c-.6084.52149-1.24414,1.01563-1.88086,1.50879a21.40635,21.40635,0,0,0-3.46289,3.10059c-1.12793,1.36035-2.14063,3.60937-1.28418,5.4707a1.2005,1.2005,0,0,1-1.08887,1.70215Z"/><path d="M20.728,33.57715a1.2429,1.2429,0,0,1-.22265-.02051l-7.08887-1.3291a1.20034,1.20034,0,1,1,.44336-2.35938l7.08887,1.32911a1.20026,1.20026,0,0,1-.22071,2.37988Z"/><path d="M37.64592,19.35742a1.2011,1.2011,0,0,1-1.09472-.70508,27.10343,27.10343,0,0,0-3.291-5.459,1.19979,1.19979,0,0,1,1.89453-1.47266,29.55834,29.55834,0,0,1,3.584,5.94141,1.19979,1.19979,0,0,1-1.09278,1.69531Z"/><path d="M61.27581,20.08691a1.18722,1.18722,0,0,1-.61036-.168,1.19926,1.19926,0,0,1-.42089-1.64356l2.86035-4.82812a1.20017,1.20017,0,1,1,2.06445,1.22461L62.309,19.49805A1.1971,1.1971,0,0,1,61.27581,20.08691Z"/><path d="M77.00432,34.75879a1.2002,1.2002,0,0,1-.5498-2.26758l6.17578-3.17187A1.20021,1.20021,0,1,1,83.728,31.4541L77.55217,34.626A1.20153,1.20153,0,0,1,77.00432,34.75879Z"/><path d="M85.1801,54.77148a1.18678,1.18678,0,0,1-.37793-.06152,27.7012,27.7012,0,0,0-5.83007-1.25781,1.19971,1.19971,0,0,1-1.06836-1.31836,1.17973,1.17973,0,0,1,1.31836-1.06836A30.04883,30.04883,0,0,1,85.558,52.43262a1.2,1.2,0,0,1-.37793,2.33886Z"/><path d="M73.34221,75.05762a1.19717,1.19717,0,0,1-.999-.53418l-4.30957-6.46192a1.19986,1.19986,0,0,1,1.99609-1.332l4.30957,6.46192a1.20032,1.20032,0,0,1-.99707,1.86621Z"/><path d="M24.18108,70.74023a1.20018,1.20018,0,0,1-.79981-2.09472,46.19181,46.19181,0,0,1,5.9795-4.52539,1.19988,1.19988,0,0,1,1.28711,2.02539,43.74053,43.74053,0,0,0-5.667,4.28906A1.1932,1.1932,0,0,1,24.18108,70.74023Z"/><path d="M12.98381,52.80762a1.20014,1.20014,0,0,1-.3789-2.33887l7.38769-2.46191a1.20037,1.20037,0,1,1,.75977,2.27734l-7.38965,2.46191A1.1924,1.1924,0,0,1,12.98381,52.80762Z"/><path d="M50.29631,89.874a8.5244,8.5244,0,0,1-2.75-.45117,10.74938,10.74938,0,0,1-6.63671-7.48047,15.49778,15.49778,0,0,1,.90722-9.79883,1.2,1.2,0,0,1,2.2168.91993,13.08751,13.08751,0,0,0-.80371,8.26269,8.32268,8.32268,0,0,0,5.09375,5.8252,6.09235,6.09235,0,0,0,6.82617-2.04883c1.04394-1.55859,1.2041-3.55566,1.30371-6.00391l.28516-6.98925a1.20021,1.20021,0,1,1,2.39843.09765L58.852,79.19629c-.09082,2.22656-.2041,4.998-1.708,7.24219A8.26559,8.26559,0,0,1,50.29631,89.874Z"/><path d="M43.96135,80.31152a1.2,1.2,0,0,1-.459-2.30859l10.72754-4.44238c.82129-.33985,2.52929-1.044,3.97851-.1084a1.20051,1.20051,0,1,1-1.30468,2.01562c-.39063-.2539-1.38282.15625-1.75586.30957L44.42034,80.21973A1.19192,1.19192,0,0,1,43.96135,80.31152Z"/><path d="M43.99749,85.793a1.20016,1.20016,0,0,1-.35157-2.34766,79.726,79.726,0,0,0,11.918-4.73144,1.20015,1.20015,0,0,1,1.0625,2.15234,82.201,82.201,0,0,1-12.27734,4.874A1.18994,1.18994,0,0,1,43.99749,85.793Z"/><path d="M50.19182,92.83984a2.44851,2.44851,0,0,1-.68066-.0957c-1.7041-.49805-2.06153-2.42871-2.19629-3.15527a1.1998,1.1998,0,1,1,2.35937-.4375c.21778,1.1709.48047,1.28027.50977,1.28906a.70033.70033,0,0,0,.457-.333A4.095,4.095,0,0,0,51.0385,88.542a1.20014,1.20014,0,0,1,2.38086.30469,6.027,6.027,0,0,1-.74512,2.53516A2.99759,2.99759,0,0,1,50.19182,92.83984Z"/></svg>